
<svg width="1275" height="1194" fill="none" xmlns="http://www.w3.org/2000/svg"><path opacity=".4" d="M709.767 10.215a36.094 36.094 0 0135.789 0l437.164 249.561a36.103 36.103 0 0118.2 31.346v498.419a36.104 36.104 0 01-18.2 31.347L745.556 1070.45a36.098 36.098 0 01-35.789 0L272.606 820.888a36.096 36.096 0 01-18.2-31.347V291.122a36.094 36.094 0 0118.2-31.346l437.161-249.56z" fill="url(#a)"/><path opacity=".9" d="M528.573 123.552a36.093 36.093 0 0135.789 0l437.158 249.56a36.083 36.083 0 0118.2 31.347v498.419a36.082 36.082 0 01-18.2 31.346L564.362 1183.78a36.049 36.049 0 01-35.789 0L91.413 934.224a36.095 36.095 0 01-18.2-31.346V404.459a36.097 36.097 0 0118.2-31.347l437.16-249.56z" fill="url(#b)"/><defs><linearGradient id="a" x1="181.193" y1="540.332" x2="1274.13" y2="540.332" gradientUnits="userSpaceOnUse"><stop stop-color="#FF5200"/><stop offset="1" stop-color="#FF5200" stop-opacity="0"/></linearGradient><linearGradient id="b" x1="76.159" y1="901.275" x2="583.645" y2="785.412" gradientUnits="userSpaceOnUse"><stop stop-color="#FF5200"/><stop offset="1" stop-color="#FF5200" stop-opacity="0"/></linearGradient></defs></svg>