
<svg width="3840" height="3098" fill="none" xmlns="http://www.w3.org/2000/svg"><g clip-path="url(#a)"><path d="M2113.63 3089.64c-64.9 14.41-137.4 10.18-197.86-12.58L854.393 2676.87c-75.531-28.43-122.425-81.89-122.393-139.46l.974-796.09c.075-57.49 47.12-110.96 122.808-139.32L1918.2 1202.84c74.1-27.85 166.1-27.77 240.03.14l1061.39 400.19c75.57 28.52 122.46 81.97 122.38 139.46l552.75-1.31v681.4L2155.81 3077.2c-13.56 5.12-27.65 9.21-42.18 12.44z" fill="#FF5200"/><path d="M1846.35 3089.51c65.77 14.63 139.25 10.34 200.53-12.77L3840 2397.79V0H0v2397.79l1803.59 679.09c13.75 5.19 28.03 9.35 42.76 12.63z" fill="url(#b)"/></g><defs><radialGradient id="b" cx="0" cy="0" r="1" gradientUnits="userSpaceOnUse" gradientTransform="matrix(0 846 -970.188 0 1920 1947.5)"><stop stop-color="#00005B"/><stop offset=".224" stop-color="#00005B"/><stop offset="1" stop-color="#000026"/></radialGradient><clipPath id="a"><path fill="#fff" d="M0 0H3840V3098H0z"/></clipPath></defs></svg>