<svg width="49" height="48" viewBox="0 0 49 48" fill="none" xmlns="http://www.w3.org/2000/svg">
<g clip-path="url(#clip0_4771_1124)">
<path d="M14.3229 2H7.29163C4.18502 2 1.66663 4.5184 1.66663 7.625V14.6562M34.0104 2H41.0416C44.1482 2 46.6666 4.5184 46.6666 7.625V14.6562M34.0104 47H41.0416C44.1482 47 46.6666 44.4816 46.6666 41.375V34.3438M1.66663 34.3438V41.375C1.66663 44.4816 4.18502 47 7.29163 47H14.3229" stroke="#041E42" stroke-width="1.5"/>
<path d="M29.4134 32.4312V28.2664H32.5088C34.4516 28.2325 36.2628 27.149 37.2177 25.4221C38.7325 22.7133 37.8105 19.2596 35.1761 17.702C34.6163 14.6208 31.9819 12.386 28.9194 12.4199L27.7998 12.5214C26.2521 10.2867 23.7824 9 21.1151 9C16.6366 9.03386 13.0143 12.7923 13.0473 17.4312C13.0473 17.7698 13.0802 18.1084 13.1131 18.447C11.9277 19.5305 11.2691 21.0542 11.2691 22.6795C11.2691 25.7946 13.7388 28.3002 16.7683 28.2664H19.8637V32.4312C19.8637 33.3792 19.1393 34.1242 18.2172 34.1242H17.9209C17.5586 32.8375 16.6037 31.8555 15.3523 31.4831C13.3766 30.9074 11.3678 32.0926 10.808 34.1242C10.2482 36.1558 11.4008 38.2212 13.3766 38.7968C15.3523 39.3725 17.3611 38.1874 17.9209 36.1558H18.2172C20.226 36.1558 21.8395 34.4966 21.8395 32.4312V23.0519C21.8395 22.4763 21.4114 22.0361 20.8516 22.0361C20.2918 22.0361 19.8637 22.4763 19.8637 23.0519V26.2348H16.7683C15.6158 26.2348 14.5291 25.6591 13.9034 24.7111C12.8168 23.0858 13.179 20.851 14.7596 19.6998C15.056 19.4628 15.2206 19.0564 15.1548 18.684C15.056 18.2777 15.0231 17.8375 15.0231 17.4312C15.0231 13.9436 17.7892 11.0993 21.1809 11.0655C23.3543 11.0655 25.3959 12.2506 26.5155 14.1806C26.746 14.5869 27.2071 14.7901 27.6681 14.6546C28.0632 14.5192 28.4913 14.4515 28.9194 14.4515C31.1586 14.4176 33.0686 16.1783 33.2661 18.4808C33.2991 18.8533 33.5296 19.1919 33.8589 19.3273C35.1431 19.9029 35.9993 21.1896 35.9993 22.6456C35.9664 24.6095 34.4187 26.2009 32.5088 26.2348H29.4134V23.0519C29.4134 22.4763 28.9853 22.0361 28.4255 22.0361C27.8657 22.0361 27.4376 22.4763 27.4376 23.0519V32.4312C27.4376 34.4966 29.0511 36.1558 31.0598 36.1558H31.3562C31.7843 37.8488 33.2661 39 34.9456 39C36.9872 39 38.6666 37.2731 38.6666 35.1738C38.6666 33.0745 36.9872 31.3476 34.9456 31.3476C33.2661 31.3476 31.8172 32.465 31.3562 34.1242H31.0598C30.1378 34.1242 29.4134 33.3454 29.4134 32.4312ZM34.9456 36.9345C33.9906 36.9345 33.2003 36.1219 33.2003 35.14C33.2991 34.3273 33.9247 33.7178 34.6821 33.6163C35.6371 33.4808 36.5262 34.158 36.6579 35.14C36.6579 36.1219 35.9005 36.9007 34.9456 36.9345ZM16.0768 35.14C16.1097 35.3093 16.1097 35.4786 16.0768 35.6479C15.9451 36.6298 15.056 37.307 14.101 37.1716C13.1461 37.0361 12.4875 36.1219 12.6192 35.14V35.1061C12.6521 34.1242 13.4095 33.3454 14.3645 33.3792C15.3194 33.3792 16.0768 34.158 16.0768 35.14Z" fill="#041E42"/>
<path d="M24.6385 34.8014C25.1983 34.8014 25.6264 34.3612 25.6264 33.7856V21.6975C25.6264 21.1219 25.1983 20.6817 24.6385 20.6817C24.0787 20.6817 23.6507 21.1219 23.6507 21.6975V33.7856C23.6507 34.3273 24.0787 34.8014 24.6385 34.8014Z" fill="#041E42"/>
</g>
<defs>
<clipPath id="clip0_4771_1124">
<rect width="48" height="48" fill="white" transform="translate(0.666626)"/>
</clipPath>
</defs>
</svg>
