<svg width="768" height="212" fill="none" xmlns="http://www.w3.org/2000/svg"><g clip-path="url(#a)"><path transform="translate(0 .144)" fill="#E3F0FC" d="M0 0H768V211H0z"/><path d="M359.512 146.597a197.335 197.335 0 00147.109 0L909.935-15.411C1111.4-96.339 1053.49-395.856 836.38-395.856H29.753c-217.114 0-275.023 299.517-73.555 380.445l403.314 162.008z" fill="#F4473C"/><path d="M190.621 162.641a197.33 197.33 0 00133.958 0L781.506-2.238C989.468-77.28 935.613-385.19 714.527-385.19h-913.852c-221.087 0-274.942 307.91-66.981 382.952l456.927 164.879z" fill="url(#b)"/></g><defs><linearGradient id="b" x1="0" y1="-60.123" x2="768" y2="-60.123" gradientUnits="userSpaceOnUse"><stop stop-color="#000026"/><stop offset="1" stop-color="#00005B"/></linearGradient><clipPath id="a"><path fill="#fff" transform="translate(0 .144)" d="M0 0H768V211H0z"/></clipPath></defs></svg>