<svg width="56" height="56" viewBox="0 0 56 56" fill="none" xmlns="http://www.w3.org/2000/svg">
<path d="M45.8652 35.5545V15.912C45.8652 15.7447 45.8006 15.5828 45.6858 15.4614L36.6055 5.84625C36.4819 5.715 36.3091 5.64062 36.1286 5.64062H24.4845C24.1225 5.64062 23.8283 5.93484 23.8283 6.29688C23.8283 6.65891 24.1225 6.95312 24.4845 6.95312H35.4723V13.2302C35.4723 15.0709 36.9697 16.5683 38.8105 16.5683H44.5527V35.5545C39.6669 35.8925 35.7939 39.9733 35.7939 44.9444C35.7939 46.4253 36.1384 47.8264 36.7498 49.0744H10.7831C9.62813 49.0744 8.68859 48.1348 8.68859 46.9798V9.04766C8.6875 7.89266 9.62813 6.95312 10.7831 6.95312H16.3777C16.7397 6.95312 17.0339 6.65891 17.0339 6.29688C17.0339 5.93484 16.7397 5.64062 16.3777 5.64062H10.7831C8.90406 5.64062 7.375 7.16859 7.375 9.04766V46.9787C7.375 48.8578 8.90297 50.3858 10.782 50.3858H37.533C39.2403 52.7877 42.0436 54.3583 45.2089 54.3583C50.3998 54.3583 54.6239 50.1342 54.6239 44.9433C54.625 39.9733 50.752 35.8936 45.8652 35.5545ZM36.7848 13.2302V7.94734L43.6864 15.2558H38.8105C37.6938 15.2558 36.7848 14.3469 36.7848 13.2302ZM45.2089 53.0469C40.7409 53.0469 37.1064 49.4123 37.1064 44.9444C37.1064 40.4764 40.7409 36.8419 45.2089 36.8419C49.6769 36.8419 53.3114 40.4764 53.3114 44.9444C53.3125 49.4123 49.6769 53.0469 45.2089 53.0469ZM49.5161 41.6172C49.772 41.8731 49.772 42.2888 49.5161 42.5447L43.7903 48.2705C43.6623 48.3984 43.4939 48.463 43.3266 48.463C43.1592 48.463 42.9908 48.3984 42.8628 48.2705L40.9017 46.3094C40.6458 46.0534 40.6458 45.6378 40.9017 45.3819C41.1577 45.1259 41.5733 45.1259 41.8292 45.3819L43.3255 46.8781L48.5864 41.6172C48.8445 41.3613 49.2602 41.3613 49.5161 41.6172ZM19.2127 6.29688C19.2127 5.93484 19.5069 5.64062 19.8689 5.64062H20.9922C21.3542 5.64062 21.6484 5.93484 21.6484 6.29688C21.6484 6.65891 21.3542 6.95312 20.9922 6.95312H19.8689C19.5069 6.95312 19.2127 6.65891 19.2127 6.29688Z" fill="white"/>
<g opacity="0.5">
<path d="M25.9395 17.6826C25.5774 17.6826 25.2832 17.9768 25.2832 18.3389C25.2832 18.702 25.5763 18.9951 25.9395 18.9951H35.7307C36.0927 18.9951 36.387 18.7009 36.387 18.3389C36.387 17.9768 36.0927 17.6826 35.7307 17.6826H25.9395Z" fill="white"/>
<path d="M25.9395 25.3575C25.5774 25.3575 25.2832 25.6517 25.2832 26.0137C25.2832 26.3757 25.5763 26.67 25.9395 26.67H39.2537C39.6157 26.67 39.9099 26.3757 39.9099 26.0137C39.9099 25.6517 39.6157 25.3575 39.2537 25.3575H25.9395Z" fill="white"/>
<path d="M25.9395 29.0226C25.5774 29.0226 25.2832 29.3168 25.2832 29.6789C25.2832 30.042 25.5763 30.3351 25.9395 30.3351H35.7307C36.0927 30.3351 36.387 30.0409 36.387 29.6789C36.387 29.3168 36.0927 29.0226 35.7307 29.0226H25.9395Z" fill="white"/>
<path d="M25.9395 36.6975C25.5774 36.6975 25.2832 36.9917 25.2832 37.3537C25.2832 37.7157 25.5763 38.01 25.9395 38.01H33.7226C34.0846 38.01 34.3788 37.7157 34.3788 37.3537C34.3788 36.9917 34.0846 36.6975 33.7226 36.6975H25.9395Z" fill="white"/>
<path d="M25.9395 40.3626C25.5774 40.3626 25.2832 40.6568 25.2832 41.0189C25.2832 41.3809 25.5763 41.6751 25.9395 41.6751H31.7396C32.1016 41.6751 32.3959 41.3809 32.3959 41.0189C32.3959 40.6568 32.1016 40.3626 31.7396 40.3626H25.9395Z" fill="white"/>
<path d="M25.9395 13.6826C25.5774 13.6826 25.2832 13.9768 25.2832 14.3389C25.2832 14.702 25.5763 14.9951 25.9395 14.9951H29.7307C30.0927 14.9951 30.387 14.7009 30.387 14.3389C30.387 13.9768 30.0927 13.6826 29.7307 13.6826H25.9395Z" fill="white"/>
</g>
<path d="M20.3323 12.2409C19.6541 11.8854 18.8874 11.6973 18.1163 11.6973C15.4771 11.6973 13.3301 13.8443 13.3301 16.4835C13.3301 19.1227 15.4771 21.2698 18.1163 21.2698C20.7555 21.2698 22.9026 19.1227 22.9026 16.4835C22.9026 16.3895 22.8993 16.2954 22.8938 16.2024C22.873 15.8404 22.5602 15.5626 22.2004 15.5855C21.8384 15.6063 21.5627 15.917 21.5835 16.279C21.5868 16.3468 21.589 16.4146 21.589 16.4835C21.589 18.3987 20.0304 19.9573 18.1152 19.9573C16.2001 19.9573 14.6415 18.3987 14.6415 16.4835C14.6415 14.5684 16.2001 13.0098 18.1152 13.0098C18.6829 13.0098 19.2243 13.1421 19.723 13.4035C20.0446 13.572 20.4405 13.4484 20.609 13.1268C20.7774 12.8052 20.6538 12.4093 20.3323 12.2409Z" fill="white"/>
<path d="M22.347 12.3896L18.2552 16.4813L16.9471 15.1732C16.6912 14.9173 16.2755 14.9173 16.0196 15.1732C15.7637 15.4291 15.7637 15.8448 16.0196 16.1007L17.7915 17.8726C17.9195 18.0005 18.0879 18.0651 18.2552 18.0651C18.4226 18.0651 18.591 18.0005 18.719 17.8726L23.2745 13.3171C23.5304 13.0612 23.5304 12.6455 23.2745 12.3896C23.0185 12.1337 22.6029 12.1337 22.347 12.3896Z" fill="white"/>
<path d="M18.1163 31.2962C16.2012 31.2962 14.6426 29.7376 14.6426 27.8224C14.6426 25.9073 16.2012 24.3487 18.1163 24.3487C18.684 24.3487 19.2254 24.481 19.7241 24.7424C20.0457 24.9109 20.4416 24.7873 20.6101 24.4657C20.7785 24.1441 20.6549 23.7482 20.3334 23.5798C19.6552 23.2243 18.8885 23.0362 18.1174 23.0362C15.4782 23.0362 13.3312 25.1832 13.3312 27.8224C13.3312 30.4616 15.4782 32.6087 18.1174 32.6087C20.7566 32.6087 22.9037 30.4616 22.9037 27.8224C22.9037 27.7284 22.9004 27.6343 22.8949 27.5413C22.8741 27.1793 22.5613 26.9015 22.2015 26.9245C21.8395 26.9452 21.5638 27.2559 21.5846 27.6179C21.5879 27.6857 21.5901 27.7535 21.5901 27.8224C21.5901 29.7376 20.0315 31.2962 18.1163 31.2962Z" fill="white"/>
<path d="M18.719 29.2137L23.2745 24.6582C23.5304 24.4012 23.5304 23.9855 23.2745 23.7307C23.0185 23.4748 22.6029 23.4748 22.347 23.7307L18.2552 27.8224L16.9471 26.5143C16.6912 26.2584 16.2755 26.2584 16.0196 26.5143C15.7637 26.7702 15.7637 27.1859 16.0196 27.4418L17.7915 29.2137C17.9195 29.3416 18.0879 29.4062 18.2552 29.4062C18.4226 29.4062 18.591 29.3416 18.719 29.2137Z" fill="white"/>
<path d="M18.1163 34.3762C15.4771 34.3762 13.3301 36.5232 13.3301 39.1624C13.3301 41.8016 15.4771 43.9487 18.1163 43.9487C20.7555 43.9487 22.9026 41.8016 22.9026 39.1624C22.9026 39.0684 22.8993 38.9743 22.8938 38.8813C22.873 38.5193 22.5602 38.2404 22.2004 38.2645C21.8384 38.2852 21.5627 38.5959 21.5835 38.9579C21.5868 39.0257 21.589 39.0935 21.589 39.1624C21.589 41.0776 20.0304 42.6362 18.1152 42.6362C16.2001 42.6362 14.6415 41.0776 14.6415 39.1624C14.6415 37.2473 16.2001 35.6887 18.1152 35.6887C18.6829 35.6887 19.2243 35.821 19.723 36.0824C20.0446 36.2509 20.4405 36.1273 20.609 35.8057C20.7774 35.4841 20.6538 35.0882 20.3323 34.9198C19.6541 34.5643 18.8874 34.3762 18.1163 34.3762Z" fill="white"/>
<path d="M18.719 40.5526L23.2745 35.9971C23.5304 35.7412 23.5304 35.3255 23.2745 35.0696C23.0185 34.8137 22.6029 34.8137 22.347 35.0696L18.2552 39.1613L16.9471 37.8532C16.6912 37.5973 16.2755 37.5973 16.0196 37.8532C15.7637 38.1091 15.7637 38.5248 16.0196 38.7807L17.7915 40.5526C17.9195 40.6805 18.0879 40.7451 18.2552 40.7451C18.4226 40.7451 18.591 40.6805 18.719 40.5526Z" fill="white"/>
</svg>
