<svg width="1440" height="397" fill="none" xmlns="http://www.w3.org/2000/svg"><g clip-path="url(#a)"><path transform="translate(0 .144)" fill="#E3F0FC" d="M0 0H1440V396H0z"/><path d="M674.085 274.744a369.993 369.993 0 00275.83 0L1706.13-29.021c377.75-151.74 269.17-713.335-137.92-713.335H55.788c-407.089 0-515.669 561.595-137.917 713.335l756.214 303.765z" fill="#F4473C"/><path d="M357.414 304.827a370 370 0 00251.172 0L1465.32-4.322c389.93-140.703 288.95-718.034-125.58-718.034H-373.739c-414.537 0-515.512 577.331-125.584 718.034l856.737 309.149z" fill="url(#b)"/></g><defs><linearGradient id="b" x1="0" y1="-112.856" x2="1440" y2="-112.856" gradientUnits="userSpaceOnUse"><stop stop-color="#000026"/><stop offset="1" stop-color="#00005B"/></linearGradient><clipPath id="a"><path fill="#fff" transform="translate(0 .144)" d="M0 0H1440V396H0z"/></clipPath></defs></svg>