
<svg width="113" height="48" fill="none" xmlns="http://www.w3.org/2000/svg"><g clip-path="url(#a)" fill="#fff"><path d="M112.166 7.481v-.007a.267.267 0 00.087-.197c0-.227-.173-.34-.517-.34h-.333v1.129h.235v-.43h.1l.26.43h.283l-.313-.469a.454.454 0 00.199-.117h-.001v.001zm-.402-.026h-.126l.004-.332h.117a.322.322 0 01.18.04c.04.027.063.073.059.121 0 .115-.083.171-.235.171h.001z"/><path d="M112.719 6.99a1.04 1.04 0 00-.388-.38 1.116 1.116 0 00-.55-.138 1.057 1.057 0 00-.927.517c-.094.159-.142.34-.141.525a1.01 1.01 0 00.529.897c.165.092.35.14.539.138.192.002.382-.046.55-.138.16-.09.293-.218.388-.375a.99.99 0 00.143-.522 1.01 1.01 0 00-.143-.525zm-.199.961a.772.772 0 01-.299.297v-.007a.907.907 0 01-.44.117.87.87 0 01-.428-.108.774.774 0 01-.298-.297.866.866 0 01-.11-.43.876.876 0 01.11-.434.795.795 0 01.298-.302.854.854 0 01.428-.107.883.883 0 01.44.107.8.8 0 01.299.3c.073.133.11.282.108.433.002.15-.035.299-.108.43v.001zM36.005 7.41h-3.02c-.1 0-.15-.048-.15-.142V3.934a.326.326 0 00-.103-.234.344.344 0 00-.253-.1h-2.575a.349.349 0 00-.356.334v3.343a.158.158 0 010 .035.13.13 0 01-.147.108h-1.688a.353.353 0 00-.253.099.323.323 0 00-.103.234v2.002c0 .088.038.173.103.234.068.065.159.1.253.098H29.4a.103.103 0 01.035 0c.07.01.121.073.112.144v8.107c.02 1.425.415 2.393 1.184 2.905.77.512 1.935.768 3.496.768l1.54-.028c.236-.038.356-.162.356-.37v-2.137a.319.319 0 00-.105-.235.35.35 0 00-.25-.1h-.89c-.71 0-1.229-.16-1.555-.483-.326-.321-.489-.844-.489-1.568v-6.86c0-.094.05-.143.15-.143h3.02a.356.356 0 00.253-.098.33.33 0 00.103-.253V7.744a.328.328 0 00-.103-.235.359.359 0 00-.253-.098zM43.148 7.182a6.709 6.709 0 00-3.954 1.154 5.729 5.729 0 00-2.236 3.146 8.377 8.377 0 00-.356 2.679c0 1.823.227 3.247.68 4.272a5.792 5.792 0 002.356 2.792c1.077.663 2.385.995 3.923.995a8.191 8.191 0 003.392-.683 6.003 6.003 0 002.444-1.924.3.3 0 00-.09-.468l-1.837-1.451a.287.287 0 00-.206-.087.355.355 0 00-.297.17 3.773 3.773 0 01-3.198 1.597c-1.841-.018-2.996-.711-3.465-2.078a3.913 3.913 0 01-.266-1.318.13.13 0 01.147-.108h9.27c.237 0 .356-.107.356-.342l.03-.883a9.74 9.74 0 00-.118-1.594c-.493-3.912-2.686-5.868-6.577-5.868h.002v-.001zM46.2 13.42h-6.012c-.117 0-.156-.047-.117-.143.02-.426.1-.848.235-1.253a2.79 2.79 0 011.02-1.468 3.018 3.018 0 011.824-.526 3.275 3.275 0 011.971.569c.529.39.901.957 1.05 1.597.098.353.157.716.179 1.08 0 .097-.05.144-.15.144zM58.402 7.18c-1.64 0-2.864.512-3.67 1.537-.022.058-.052.077-.09.058a.117.117 0 01-.06-.114v-.909a.328.328 0 00-.103-.234.353.353 0 00-.251-.099h-2.725a.353.353 0 00-.253.099.323.323 0 00-.103.234v13.87c0 .09.037.175.103.235a.346.346 0 00.253.1h2.718a.345.345 0 00.25-.1.324.324 0 00.104-.234v-8.688c-.035-.78.249-1.54.786-2.107a2.754 2.754 0 012.059-.798 2.691 2.691 0 012.043.812c.527.576.805 1.338.772 2.119v8.662c0 .09.037.174.103.234a.342.342 0 00.253.1h2.73a.346.346 0 00.253-.1.324.324 0 00.103-.234V12.28c0-1.575-.481-2.819-1.442-3.732-.96-.91-2.236-1.367-3.832-1.37v.001zM74.932 7.81a8.082 8.082 0 00-3.296-.628c-1.715 0-3.142.37-4.28 1.112-1.137.74-1.784 1.69-1.94 2.846-.02.073.01.15.075.188.076.05.162.083.252.098l2.873.342a.33.33 0 00.414-.285c.126-.464.444-.852.874-1.067a3.766 3.766 0 011.82-.384c.91 0 1.59.204 2.045.614.47.445.72 1.075.68 1.723v.683c0 .094-.048.14-.147.14h-3.17c-1.955.004-3.47.417-4.546 1.241-1.075.824-1.613 1.977-1.613 3.46-.001 1.425.477 2.498 1.435 3.22.959.72 2.179 1.08 3.66 1.08 1.843 0 3.248-.513 4.214-1.538a.129.129 0 01.119-.042c.04.01.058.043.058.1v.911a.351.351 0 00.356.335h2.725a.342.342 0 00.25-.1.32.32 0 00.106-.235v-9.598a4.236 4.236 0 00-.77-2.494 5.132 5.132 0 00-2.194-1.723zm-.585 9.15a2.226 2.226 0 01-1.037 1.873 4.163 4.163 0 01-2.48.735 3.009 3.009 0 01-1.793-.498 1.638 1.638 0 01-.702-1.405 1.812 1.812 0 01.904-1.624c.602-.38 1.426-.57 2.472-.57h2.488c.099 0 .148.047.148.143v1.346zM89.875 8.235c-.958-.702-2.168-1.053-3.629-1.053-1.46 0-2.526.484-3.375 1.454a.098.098 0 01-.117.027.115.115 0 01-.061-.114v-6.18a.35.35 0 00-.356-.335h-2.725a.345.345 0 00-.251.1.32.32 0 00-.103.234v19.263c0 .088.037.174.103.234a.344.344 0 00.25.093h2.728a.35.35 0 00.253-.1.324.324 0 00.103-.235v-.882a.115.115 0 01.06-.115c.038-.018.078 0 .118.056a4.344 4.344 0 003.4 1.51c1.4 0 2.585-.35 3.553-1.053a5.891 5.891 0 002.107-2.933c.396-1.145.587-2.35.564-3.561a11.517 11.517 0 00-.515-3.474 6.112 6.112 0 00-2.107-2.936zm-1.618 9.744a2.686 2.686 0 01-1.032 1.009 3.042 3.042 0 01-1.482.358c-.97.032-1.87-.501-2.31-1.367-.453-.724-.68-1.826-.68-3.306s.248-2.609.74-3.39a2.456 2.456 0 012.222-1.252c1.045-.002 1.836.397 2.369 1.196.592.836.887 1.994.887 3.474 0 1.388-.238 2.48-.714 3.278zM96.891 2.055h-2.725a.35.35 0 00-.25.1.319.319 0 00-.106.235v19.264c.001.09.04.174.105.234a.35.35 0 00.251.089h2.725a.359.359 0 00.253-.099.328.328 0 00.103-.234V2.39a.326.326 0 00-.103-.235.36.36 0 00-.253-.1zM105.113 7.16a6.702 6.702 0 00-3.947 1.164 5.71 5.71 0 00-2.236 3.146 8.375 8.375 0 00-.351 2.67c0 1.822.227 3.246.68 4.271a5.79 5.79 0 002.351 2.803c1.075.665 2.383.997 3.923.997a8.176 8.176 0 003.392-.683 6.023 6.023 0 002.445-1.937.3.3 0 00-.089-.468l-1.838-1.45a.282.282 0 00-.206-.087.35.35 0 00-.297.17 3.777 3.777 0 01-3.197 1.594c-1.843-.018-2.997-.711-3.465-2.078a3.881 3.881 0 01-.267-1.28c0-.097.049-.144.148-.144h9.27c.237 0 .356-.107.356-.342l.028-.882c.001-.535-.04-1.07-.124-1.597-.493-3.912-2.685-5.867-6.576-5.867zm3.062 6.235h-6.012c-.118 0-.159-.047-.12-.14.022-.427.1-.85.235-1.255a2.776 2.776 0 011.02-1.466 3.026 3.026 0 011.815-.525c.704-.029 1.4.17 1.982.567.53.389.902.954 1.051 1.594.097.354.156.717.178 1.084 0 .093-.052.14-.15.14h.001zM22.153 3.558a2.167 2.167 0 00-1.638-1.433L9.832.039a2.173 2.173 0 00-2.027.684L.548 8.849a2.168 2.168 0 00-.436 2.13l3.425 10.17a2.165 2.165 0 001.639 1.432l10.689 2.086a2.174 2.174 0 002.028-.683l7.257-8.127a2.17 2.17 0 00.428-2.13l-3.425-10.17zm-1.786-.696c.5.097.909.453 1.072.934l2.252 6.689-4.788-7.553a1.885 1.885 0 00-.371-.428l1.835.358zm.936 5.246l1.967 3.128c.224.354.242.8.047 1.17l-1.994 3.788V8.41a1.833 1.833 0 00-.019-.302zM18.26 3.335l.007.009 2.358 3.71a1.384 1.384 0 00-.138-.091l-6.803-3.937a.89.89 0 00-.096-.052l3.626-.185c.422-.02.821.189 1.046.546zm2.318 5.075l-.01 7.894a.937.937 0 01-.468.796l-6.794 3.928a.936.936 0 01-.923 0l-6.803-3.94a.938.938 0 01-.468-.796V8.41a.937.937 0 01.468-.796l6.803-3.937a.92.92 0 01.923 0l6.803 3.937a.937.937 0 01.469.796zM8.362 1.223A1.406 1.406 0 019.682.78l6.674 1.3-8.615.435c-.235.014-.466.07-.68.164l1.301-1.456zm-.583 2.053l4.174-.21-6.749 3.898a.13.13 0 00-.03.018l1.615-3.086c.199-.366.574-.601.99-.62zm-6.288 9.437l-.665-1.976A1.405 1.405 0 011.11 9.35h-.004l4.799-5.37-4.198 7.97a1.928 1.928 0 00-.215.764zm2.905 3.884L2.42 13.481a1.172 1.172 0 01-.047-1.17L4.368 8.52v7.775c0 .1.01.202.028.301v.001zm.923 5.244a1.415 1.415 0 01-1.068-.932L2 14.22l4.79 7.55c.102.16.227.305.372.428l-1.842-.358zm2.102-.47l-2.358-3.72c.045.033.092.063.14.09l6.804 3.939c.03.019.063.036.096.051l-3.627.186a1.17 1.17 0 01-1.055-.546zm9.907 2.113a1.42 1.42 0 01-1.322.448l-6.673-1.305 8.615-.435c.235-.014.466-.069.682-.164l-1.302 1.456zm.583-2.046l-4.174.211 6.75-3.907.03-.019-1.625 3.086a1.17 1.17 0 01-.98.63zm6.67-6.082l-4.797 5.385 4.198-7.973a1.94 1.94 0 00.217-.763l.665 1.975c.16.477.05 1.002-.283 1.377zM5.657 43.662a3.976 3.976 0 01-1.638-1.548c-.39-.668-.586-1.44-.586-2.313v-5.46c0-.86.195-1.62.586-2.282a3.995 3.995 0 011.638-1.539c.701-.364 1.515-.546 2.441-.546.927 0 1.74.179 2.442.536a3.97 3.97 0 011.638 1.51c.39.648.585 1.395.585 2.242 0 .067-.02.12-.059.16a.19.19 0 01-.139.059l-1.012.06c-.133 0-.199-.06-.199-.18v-.059c0-.94-.298-1.69-.893-2.253-.596-.563-1.383-.844-2.363-.844s-1.767.285-2.362.854c-.596.569-.893 1.317-.893 2.243v5.559c0 .926.297 1.674.893 2.243.595.569 1.383.854 2.362.854.98 0 1.767-.282 2.363-.844.595-.563.893-1.314.893-2.253v-.04c0-.12.066-.179.199-.179l1.012.06c.132 0 .199.06.199.178 0 .86-.196 1.618-.586 2.273a3.95 3.95 0 01-1.638 1.52c-.701.356-1.515.535-2.442.535-.926 0-1.74-.182-2.441-.546zM14.286 43.831v-13.5c0-.131.066-.198.199-.198h1.012c.132 0 .199.067.199.199v13.5c0 .132-.067.198-.199.198h-1.012c-.133 0-.199-.066-.199-.199zM19.025 43.454c-.689-.49-1.165-1.165-1.43-2.025-.185-.609-.278-1.423-.278-2.442 0-1.019.093-1.826.278-2.422.252-.847.722-1.515 1.41-2.005s1.522-.734 2.501-.734c.98 0 1.75.245 2.432.734.682.49 1.148 1.152 1.4 1.985.185.57.277 1.383.277 2.442 0 1.059-.092 1.886-.277 2.442-.252.86-.718 1.535-1.4 2.025-.682.49-1.499.734-2.452.734-.953 0-1.773-.245-2.461-.734zm4.09-1.023c.45-.35.754-.823.912-1.419.12-.476.179-1.145.179-2.005 0-.86-.053-1.542-.159-2.005-.159-.596-.466-1.069-.923-1.42-.456-.35-1.01-.526-1.658-.526-.648 0-1.197.176-1.647.527-.45.35-.755.823-.913 1.419-.106.463-.16 1.132-.16 2.005s.054 1.542.16 2.005c.145.596.446 1.069.903 1.42.456.35 1.016.526 1.677.526.662 0 1.178-.176 1.628-.526zM33.554 33.985h1.012c.132 0 .199.066.199.198v9.648c0 .133-.067.199-.199.199h-1.012c-.133 0-.199-.066-.199-.199v-.854c0-.026-.013-.046-.04-.059-.026-.013-.046-.007-.06.02-.555.82-1.435 1.23-2.64 1.23-.635 0-1.22-.128-1.756-.386a3.029 3.029 0 01-1.27-1.122c-.312-.49-.467-1.079-.467-1.767v-6.71c0-.132.066-.198.198-.198h1.013c.132 0 .198.066.198.198v6.293c0 .755.212 1.353.635 1.797.424.443 1 .665 1.727.665.728 0 1.354-.225 1.797-.675.443-.45.665-1.046.665-1.787v-6.293c0-.132.066-.198.199-.198zM43.16 30.133h1.012c.133 0 .199.067.199.199v13.5c0 .132-.066.198-.199.198H43.16c-.132 0-.198-.066-.198-.199v-.834c0-.026-.01-.043-.03-.05-.02-.006-.043.004-.07.03a3.009 3.009 0 01-1.082.894c-.43.212-.91.317-1.439.317-.926 0-1.704-.238-2.333-.714-.628-.477-1.062-1.125-1.3-1.946-.185-.595-.278-1.436-.278-2.52 0-1.086.08-1.92.238-2.463.239-.846.675-1.512 1.31-1.995.636-.483 1.423-.724 2.363-.724.516 0 .993.102 1.43.307.436.206.8.5 1.091.884.027.026.05.036.07.03.02-.007.03-.023.03-.05v-4.665c0-.133.066-.199.198-.199zm-.298 10.363c.053-.357.08-.854.08-1.489 0-.635-.027-1.135-.08-1.499a3.354 3.354 0 00-.278-.963c-.159-.45-.42-.81-.784-1.081-.364-.272-.797-.407-1.3-.407-.53 0-.986.132-1.37.397a2.253 2.253 0 00-.834 1.052 3.45 3.45 0 00-.347.982c-.073.364-.11.87-.11 1.52 0 .648.027 1.107.08 1.458.053.351.146.665.278.943.159.477.44.854.844 1.132.403.278.883.417 1.439.417s.973-.14 1.33-.417c.357-.278.622-.649.794-1.112.12-.265.205-.576.258-.933zM50.694 43.175c-.867-.674-1.3-1.575-1.3-2.7v-.615c0-.132.066-.198.198-.198h.973c.132 0 .198.066.198.198v.536c0 .768.318 1.386.953 1.856.636.47 1.516.705 2.64.705 1.02 0 1.794-.215 2.323-.645.53-.43.794-1.003.794-1.717 0-.463-.122-.86-.367-1.191-.245-.331-.622-.642-1.132-.934-.51-.29-1.227-.628-2.153-1.012-.993-.397-1.764-.744-2.313-1.042a3.889 3.889 0 01-1.33-1.152c-.338-.47-.506-1.062-.506-1.776 0-1.112.387-1.976 1.16-2.591.775-.615 1.837-.923 3.187-.923 1.47 0 2.627.344 3.474 1.032.847.688 1.27 1.602 1.27 2.74v.436c0 .133-.066.199-.198.199h-.992c-.133 0-.199-.066-.199-.199v-.357c0-.768-.301-1.396-.903-1.886-.602-.49-1.44-.734-2.511-.734-.94 0-1.661.192-2.164.575-.503.384-.755.94-.755 1.668 0 .476.123.87.367 1.181.245.311.596.583 1.053.814.456.232 1.161.533 2.114.903.966.397 1.744.768 2.332 1.112a4.65 4.65 0 011.43 1.26c.364.497.546 1.102.546 1.817 0 1.112-.41 1.998-1.231 2.66-.82.662-1.959.993-3.415.993-1.455 0-2.676-.338-3.543-1.013zM68.231 38.709v.635c0 .132-.066.198-.198.198H61.62c-.052 0-.079.027-.079.08.027.728.066 1.197.12 1.41.145.595.456 1.065.932 1.409.477.344 1.085.516 1.826.516.556 0 1.046-.126 1.47-.377.423-.252.754-.61.992-1.072.08-.12.172-.146.278-.08l.774.457c.106.066.133.159.08.278a3.572 3.572 0 01-1.49 1.499c-.66.364-1.422.546-2.282.546-.94-.014-1.727-.239-2.362-.675-.636-.437-1.092-1.046-1.37-1.827-.239-.635-.358-1.548-.358-2.74 0-.555.01-1.008.03-1.36.02-.35.07-.664.149-.942.225-.86.678-1.549 1.36-2.065.681-.516 1.505-.774 2.472-.774 1.204 0 2.13.304 2.779.913.648.609 1.052 1.47 1.21 2.58.054.372.08.835.08 1.39zm-5.687-3.147c-.43.338-.712.79-.844 1.36-.08.278-.133.728-.159 1.35 0 .053.027.08.08.08h5.141c.053 0 .08-.027.08-.08-.027-.596-.067-1.02-.12-1.27-.145-.596-.44-1.07-.883-1.42-.443-.35-1.003-.526-1.677-.526-.676 0-1.188.169-1.619.506zM71.147 43.444c-.681-.496-1.148-1.168-1.4-2.015-.171-.582-.257-1.403-.257-2.462 0-.953.086-1.76.258-2.422a3.61 3.61 0 011.39-1.975c.688-.496 1.508-.744 2.461-.744.953 0 1.803.245 2.511.734.708.49 1.168 1.099 1.38 1.827.066.238.106.436.12.595v.04c0 .093-.06.152-.18.178l-.992.14h-.04c-.092 0-.152-.06-.178-.18l-.06-.297c-.12-.503-.41-.93-.873-1.28-.464-.351-1.026-.526-1.688-.526-.662 0-1.214.175-1.657.526-.444.35-.732.817-.864 1.4-.12.502-.179 1.17-.179 2.004 0 .834.06 1.549.179 2.025.132.596.42 1.069.864 1.42.443.35.995.526 1.657.526s1.208-.17 1.678-.507c.47-.337.764-.77.883-1.3v-.08l.02-.079c.013-.132.092-.185.238-.159l.973.16c.132.026.192.099.178.218l-.079.397c-.198.767-.655 1.39-1.37 1.866-.714.476-1.555.714-2.52.714-.967 0-1.771-.248-2.453-.744zM85.246 33.985h1.012c.132 0 .199.066.199.198v9.648c0 .133-.067.199-.199.199h-1.012c-.133 0-.199-.066-.199-.199v-.854c0-.026-.013-.046-.04-.059-.026-.013-.046-.007-.06.02-.555.82-1.435 1.23-2.64 1.23-.635 0-1.22-.128-1.757-.386a3.029 3.029 0 01-1.27-1.122c-.311-.49-.466-1.079-.466-1.767v-6.71c0-.132.066-.198.198-.198h1.012c.133 0 .199.066.199.198v6.293c0 .755.212 1.353.635 1.797.424.443 1 .665 1.727.665.728 0 1.354-.225 1.797-.675.443-.45.665-1.046.665-1.787v-6.293c0-.132.066-.198.199-.198zM93.595 34.143c.106.053.146.139.12.258l-.219.972c-.04.133-.126.172-.258.12a2.02 2.02 0 00-.774-.14l-.258.02c-.688.027-1.258.282-1.707.765-.45.483-.675 1.095-.675 1.836v5.856c0 .133-.067.199-.199.199h-1.012c-.133 0-.199-.066-.199-.199v-9.648c0-.132.066-.198.199-.198h1.012c.132 0 .199.066.199.198v1.211c0 .04.01.063.03.07.02.006.036-.004.049-.03a3.16 3.16 0 011.062-1.142c.43-.27.93-.406 1.499-.406.437 0 .814.086 1.131.258zM94.775 31.84a1.077 1.077 0 01-.318-.793c0-.318.106-.6.318-.805.211-.205.476-.307.794-.307.317 0 .582.102.794.308.212.205.317.473.317.804 0 .33-.105.582-.317.794a1.077 1.077 0 01-.794.317c-.318 0-.583-.106-.794-.317zm.04 11.971v-9.648c0-.132.066-.198.198-.198h1.012c.133 0 .199.066.199.198v9.648c0 .133-.066.199-.199.199h-1.012c-.133 0-.199-.066-.199-.199zM102.709 35.156h-2.243c-.053 0-.079.026-.079.08v5.856c0 .635.142 1.081.426 1.34.285.258.732.387 1.34.387h.497c.132 0 .198.066.198.198v.814c0 .133-.066.199-.198.199-.159.013-.404.02-.735.02-.953 0-1.674-.18-2.164-.536-.49-.358-.734-1.02-.734-1.986v-6.293c0-.053-.027-.08-.08-.08h-1.21c-.133 0-.2-.065-.2-.198v-.774c0-.132.067-.198.2-.198h1.21c.053 0 .08-.027.08-.08v-2.303c0-.132.066-.198.198-.198h.973c.132 0 .199.066.199.198v2.303c0 .053.026.08.079.08h2.243c.133 0 .199.066.199.198v.774c0 .133-.066.199-.199.199zM104.268 47.802v-.794c0-.133.066-.199.198-.199h.08c.516-.013.916-.09 1.201-.228.284-.14.529-.397.734-.775.205-.377.427-.95.665-1.717.027-.053.027-.092 0-.119l-3.355-9.767-.02-.08c0-.092.06-.138.179-.138h1.052c.119 0 .199.053.239.158l2.58 8.02c.014.027.033.04.06.04.026 0 .046-.013.059-.04l2.541-8.02c.04-.105.12-.158.239-.158h1.032c.146 0 .198.072.159.218l-3.673 10.7c-.317.887-.615 1.542-.893 1.965-.278.424-.626.718-1.042.884-.417.165-1.003.248-1.757.248h-.139c-.093 0-.139-.066-.139-.198z"/></g><defs><clipPath id="a"><path fill="#fff" d="M0 0H112.862V48H0z"/></clipPath></defs></svg>