<svg width="375" height="104" fill="none" xmlns="http://www.w3.org/2000/svg"><g clip-path="url(#a)"><path transform="translate(0 .144)" fill="#E3F0FC" d="M0 0H375V103.027H0z"/><path d="M175.543 71.654a96.354 96.354 0 0071.831 0L444.305-7.45c98.372-39.516 70.097-185.765-35.916-185.765H14.528c-106.013 0-134.288 146.25-35.916 185.765l196.931 79.105z" fill="#F4473C"/><path d="M93.076 79.488a96.354 96.354 0 0065.41 0L381.594-1.019c101.544-36.642 75.248-186.988-32.704-186.988H-97.327c-107.952 0-134.249 150.346-32.705 186.988L93.076 79.488z" fill="url(#b)"/></g><defs><linearGradient id="b" x1="0" y1="-29.283" x2="375" y2="-29.283" gradientUnits="userSpaceOnUse"><stop stop-color="#000026"/><stop offset="1" stop-color="#00005B"/></linearGradient><clipPath id="a"><path fill="#fff" transform="translate(0 .144)" d="M0 0H375V103.027H0z"/></clipPath></defs></svg>