
<svg width="615" height="488" fill="none" xmlns="http://www.w3.org/2000/svg"><g clip-path="url(#a)"><path opacity=".497" fill-rule="evenodd" clip-rule="evenodd" d="M337.537 482.668c-10.18 5.796-22.389 6.873-33.317 3.202a39.904 39.904 0 01-7.104-3.168L118.213 381.039c-12.747-7.226-20.675-20.823-20.683-35.485l-.16-202.762c-.014-14.643 7.882-28.258 20.607-35.521L296.708 5.343c12.451-7.109 27.942-7.128 40.421-.035l178.904 101.664c12.745 7.225 20.667 20.843 20.68 35.486l.164 202.761c.005 14.662-7.891 28.279-20.61 35.52l-178.73 101.929z" fill="url(#b)"/><path fill-rule="evenodd" clip-rule="evenodd" d="M240.553 482.668c-10.18 5.796-22.389 6.873-33.317 3.202a39.872 39.872 0 01-7.104-3.168L21.229 381.039C8.482 373.813.553 360.216.546 345.554L.385 142.792c-.014-14.643 7.883-28.258 20.608-35.521L199.724 5.343c12.45-7.109 27.941-7.128 40.421-.035l178.904 101.664c12.745 7.225 20.667 20.843 20.68 35.486l.164 202.761c.005 14.662-7.892 28.279-20.61 35.52l-178.73 101.929z" fill="url(#c)"/><mask id="d" style="mask-type:luminance" maskUnits="userSpaceOnUse" x="281" y="39" width="335" height="409"><path d="M281.716 447.59V39.64h333.287v407.95H281.716z" fill="#fff" fill-opacity=".6"/></mask><g mask="url(#d)"><mask id="e" style="mask-type:luminance" maskUnits="userSpaceOnUse" x="296" y="62" width="78" height="6"><path d="M296.588 62.658v5.312h76.836v-5.312h-76.836z" fill="#fff" opacity=".611"/></mask><g mask="url(#e)"><path d="M294.464 67.97h31.008l5.306-5.312h42.646" stroke="#fff" stroke-width="1.232"/></g><path d="M462.266 63.065l-88.842-.406M566.421 260.372h-32.605l-5.627 5.856h-48.22l-7.724-7.768" stroke="#fff" stroke-width="1.232"/><mask id="f" style="mask-type:luminance" maskUnits="userSpaceOnUse" x="462" y="52" width="221" height="16"><path d="M462.266 52.364v15.608h220.233V52.364H462.266z" fill="#fff" opacity=".611"/></mask><g mask="url(#f)"><path d="M462.266 63.065l10.687-10.701h34.663l15.588 15.608H682.54" stroke="#fff" stroke-width="1.232"/></g><path d="M488.35 72.617l-13.981 13.999h-33.176M460.63 234.54h23.888l9.156 9.168h49.567M419.089 218.722l15.797 15.818h25.744" stroke="#fff" stroke-width="1.232"/><mask id="g" style="mask-type:luminance" maskUnits="userSpaceOnUse" x="553" y="89" width="130" height="17"><path d="M553.617 89.436v15.608h128.882V89.436H553.617z" fill="#fff" opacity=".611"/></mask><g mask="url(#g)"><path d="M682.785 89.436h-39.467l-15.587 15.608h-74.114" stroke="#fff" stroke-width="1.232"/></g><path d="M379.248 109.264h107.631l24.814-24.847h105.711" stroke="#fff" stroke-width="1.232"/><path fill-rule="evenodd" clip-rule="evenodd" d="M296.588 87.305h14.197l2.61 2.317h-16.807v-2.317z" fill="#fff"/><path d="M548.719 45.372h39.578l20.581-20.41h40.154M553.617 105.044h-27.489l-24.475 24.507H458.95" stroke="#fff" stroke-width="1.232"/><mask id="h" style="mask-type:luminance" maskUnits="userSpaceOnUse" x="568" y="125" width="115" height="29"><path d="M568.41 125.646v27.435h114.089v-27.435H568.41z" fill="#fff" opacity=".611"/></mask><g mask="url(#h)"><path d="M568.41 125.646h49.034l27.39 27.427 41.255.008" stroke="#fff" stroke-width="1.232"/></g><path d="M371.224 130.868h58.064l22.183 22.213h65.642l27.414-27.435h23.883M497.736 194.599H416.07l-17.702 17.725h-36.681" stroke="#fff" stroke-width="1.232"/><mask id="i" style="mask-type:luminance" maskUnits="userSpaceOnUse" x="296" y="258" width="93" height="11"><path d="M296.588 258.028v10.073h92.187v-10.073h-92.187z" fill="#fff" opacity=".611"/></mask><g mask="url(#i)"><path d="M293.334 268.101h27.831l9.295-10.073h58.315" stroke="#fff" stroke-width="1.232"/></g><mask id="j" style="mask-type:luminance" maskUnits="userSpaceOnUse" x="296" y="86" width="146" height="38"><path d="M296.588 86.616v36.778h144.605V86.616H296.588z" fill="#fff" opacity=".611"/></mask><g mask="url(#j)"><path d="M293.963 123.394h27.222l26.803-27.604 33.968-.006 8.441-9.168h50.796" stroke="#fff" stroke-width="1.232"/></g><path d="M454.307 213.742h59.479l18.413-18.437h11.926" stroke="#fff" stroke-width="1.232"/><mask id="k" style="mask-type:luminance" maskUnits="userSpaceOnUse" x="296" y="150" width="122" height="20"><path d="M296.588 150.264v19.564h120.898v-19.564H296.588z" fill="#fff" opacity=".611"/></mask><g mask="url(#k)"><path d="M417.486 150.264H378.87l-19.533 19.559-64.244.005" stroke="#fff" stroke-width="1.232"/></g><mask id="l" style="mask-type:luminance" maskUnits="userSpaceOnUse" x="296" y="130" width="76" height="24"><path d="M296.588 130.867v22.221h74.636v-22.221h-74.636z" fill="#fff" opacity=".611"/></mask><g mask="url(#l)"><path d="M295.895 153.088h35.198l22.192-22.221h17.939" stroke="#fff" stroke-width="1.232"/></g><path d="M447.536 327.336h87.466l10.885 10.899h114.71M594.037 399.439l27.237 27.273h15.627M567.13 285.688l30.23-30.27h84.481" stroke="#fff" stroke-width="1.232"/><mask id="m" style="mask-type:luminance" maskUnits="userSpaceOnUse" x="542" y="193" width="141" height="24"><path d="M542.347 193.804v23.011h140.152v-23.011H542.347z" fill="#fff" opacity=".611"/></mask><g mask="url(#m)"><path d="M683.965 209.622h-16.388l-15.797-15.818h-35.471l-22.98 23.011h-50.982" stroke="#fff" stroke-width="1.232"/></g><path d="M581.261 377.962h-30.937l-30.76-30.801h-93.033l-23.385 23.415h-30.954l-9.873 9.886M629.356 376.054L610.2 357.588h-43.635" stroke="#fff" stroke-width="1.232"/><mask id="n" style="mask-type:luminance" maskUnits="userSpaceOnUse" x="612" y="278" width="71" height="23"><path d="M612.438 278.171v22.427h70.061v-22.427h-70.061z" fill="#fff" opacity=".611"/></mask><g mask="url(#n)"><path d="M683.51 300.598l-21.962-22.237-49.11-.19" stroke="#fff" stroke-width="1.232"/></g><mask id="o" style="mask-type:luminance" maskUnits="userSpaceOnUse" x="296" y="374" width="150" height="25"><path d="M296.588 374.702v23.348h148.75v-23.348h-148.75z" fill="#fff" opacity=".611"/></mask><g mask="url(#o)"><path d="M295.852 398.05h110.541l23.317-23.348h15.628" stroke="#fff" stroke-width="1.232"/></g><mask id="p" style="mask-type:luminance" maskUnits="userSpaceOnUse" x="296" y="320" width="152" height="19"><path d="M296.588 320.119v18.054h150.948v-18.054H296.588z" fill="#fff" opacity=".611"/></mask><g mask="url(#p)"><path d="M284.836 320.119l18.029 18.054h94.684l10.857-10.837h39.13" stroke="#fff" stroke-width="1.232"/></g><mask id="q" style="mask-type:luminance" maskUnits="userSpaceOnUse" x="296" y="360" width="67" height="21"><path d="M296.588 360.584v19.878h65.732v-19.878h-65.732z" fill="#fff" opacity=".611"/></mask><g mask="url(#q)"><path d="M362.32 380.462h-52.832l-19.85-19.878" stroke="#fff" stroke-width="1.232"/></g><path d="M543.241 243.708h23.623l10.224-11.003h65.571" stroke="#fff" stroke-width="1.232"/><mask id="r" style="mask-type:luminance" maskUnits="userSpaceOnUse" x="296" y="169" width="387" height="41"><path d="M296.588 169.729v39.893h385.911v-39.893H296.588z" fill="#fff" opacity=".611"/></mask><g mask="url(#r)"><path d="M295.108 209.622h31.828l20.685-20.713h43.635l19.156-19.18h63.655l8.707 8.718h109.119l.002-.001 8.604-8.617h82.094" stroke="#fff" stroke-width="1.232"/></g><mask id="s" style="mask-type:luminance" maskUnits="userSpaceOnUse" x="296" y="410" width="299" height="21"><path d="M296.588 410.996v19.214h298.393v-19.214H296.588z" fill="#fff" opacity=".611"/></mask><g mask="url(#s)"><path d="M594.981 424.321h-98.887l-13.308-13.325h-59.399l-4.193 4.198h-50.213l-14.997 15.016h-59.627" stroke="#fff" stroke-width="1.232"/></g><path d="M445.337 374.702h23.624l9.088-9.866M594.037 399.439h-58.064l-16.611-17.4h-28.943" stroke="#fff" stroke-width="1.232"/><mask id="t" style="mask-type:luminance" maskUnits="userSpaceOnUse" x="371" y="281" width="312" height="57"><path d="M371.997 281.872v55.612h310.502v-55.612H371.997z" fill="#fff" opacity=".611"/></mask><g mask="url(#t)"><path d="M688.095 337.484l-30.267-30.389H395.96l-23.963-25.223" stroke="#fff" stroke-width="1.232"/></g><mask id="u" style="mask-type:luminance" maskUnits="userSpaceOnUse" x="581" y="377" width="102" height="54"><path d="M581.261 377.962v52.249h101.238v-52.249H581.261z" fill="#fff" opacity=".611"/></mask><g mask="url(#u)"><path d="M581.261 377.962h26.16l50.344 52.249h24.881" stroke="#fff" stroke-width="1.232"/></g><path d="M529.345 229.833l13.001-13.019M490.42 382.039l-13.002 13.019" stroke="#fff" stroke-width="1.232"/><mask id="v" style="mask-type:luminance" maskUnits="userSpaceOnUse" x="296" y="232" width="177" height="27"><path d="M296.588 232.7v25.761h175.657V232.7H296.588z" fill="#fff" opacity=".611"/></mask><g mask="url(#v)"><path d="M294.858 232.7h105.583l24.961 25.761 46.843-.001" stroke="#fff" stroke-width="1.232"/></g><mask id="w" style="mask-type:luminance" maskUnits="userSpaceOnUse" x="373" y="433" width="109" height="10"><path d="M373.99 433.842v8.782h107.559v-8.782H373.99z" fill="#fff" opacity=".611"/></mask><g mask="url(#w)"><path d="M481.549 444.019l-10.164-10.177h-87.888l-9.507 9.519" stroke="#fff" stroke-width="1.232"/></g><path d="M544.125 195.305h33.064M388.774 258.011l27.641 27.677h150.714M541.638 153.081h83.555" stroke="#fff" stroke-width="1.232"/><mask id="x" style="mask-type:luminance" maskUnits="userSpaceOnUse" x="296" y="89" width="34" height="1"><path d="M296.588 89.257v.385h32.622v-.385h-32.622z" fill="#fff" opacity=".611"/></mask><g mask="url(#x)"><path d="M329.21 89.45h-32.887" stroke="#fff" stroke-width="1.232"/></g><path fill-rule="evenodd" clip-rule="evenodd" d="M407.824 172.321l2.681-2.317h63.614l2.332 2.317h-68.627zM527.905 424.594l2.681-2.318h63.078l2.61 2.318h-68.369zM502.65 307.012l2.68-2.317h63.078l2.611 2.317H502.65zM330.486 258.203l2.681 2.317h27.406l2.61-2.317h-32.697zM426.216 347.114l2.323-2.317h32.519l-2.145 2.317h-32.697zM549.673 260.65l2.681-2.317h12.804l2.61 2.317h-18.095zM378.054 109.539l2.68-2.317h12.804l2.611 2.317h-18.095zM602.426 84.682l2.681-2.317h12.804l2.61 2.317h-18.095zM422.922 411.057l2.255-2.317h20.616l2.611 2.317h-25.482z" fill="#fff"/><mask id="y" style="mask-type:luminance" maskUnits="userSpaceOnUse" x="296" y="299" width="75" height="14"><path d="M296.588 299.534v13.418h74.202v-13.418h-74.202z" fill="#fff" opacity=".611"/></mask><g mask="url(#y)"><path d="M370.79 312.952l-14.201-13.418h-60.001" stroke="#fff" stroke-width="1.232"/></g></g></g><defs><linearGradient id="b" x1="188.965" y1="374.467" x2="536.877" y2="23.701" gradientUnits="userSpaceOnUse"><stop stop-color="#FF5200"/><stop offset="1" stop-color="#fff" stop-opacity="0"/></linearGradient><linearGradient id="c" x1="55.419" y1="399.867" x2="376.006" y2="18.313" gradientUnits="userSpaceOnUse"><stop stop-color="#FF5200"/><stop offset="1" stop-color="#fff" stop-opacity="0"/></linearGradient><clipPath id="a"><path fill="#fff" transform="matrix(-1 0 0 1 615.003 0)" d="M0 0H615.003V488H0z"/></clipPath></defs></svg>